<svg id="Layer_1" data-name="Layer 1" xmlns="http://www.w3.org/2000/svg" viewBox="0 0 140.09 133.87"><defs><style>.cls-1{fill:#ed1c62;}</style></defs><g id="Medium-L"><path class="cls-1" d="M254.39,487a5.61,5.61,0,0,0,4.42,1.08,12.74,12.74,0,0,0,5.35-2.49l33.4-24.51,33.35,24.51a13,13,0,0,0,5.37,2.49,5.86,5.86,0,0,0,4.49-1.08,6.09,6.09,0,0,0,2.34-3.9,11.8,11.8,0,0,0-.73-5.86l-13.13-39.21,33.64-24.17a12.27,12.27,0,0,0,4.05-4.27,5.85,5.85,0,0,0,.34-4.62,6,6,0,0,0-3-3.46,11.91,11.91,0,0,0-5.81-1.13l-41.31.25-12.54-39.46a13,13,0,0,0-2.86-5.15,5.77,5.77,0,0,0-4.22-1.73,5.85,5.85,0,0,0-4.25,1.73,12.28,12.28,0,0,0-2.83,5.15l-12.6,39.46-41.31-.25a12.15,12.15,0,0,0-5.76,1.1,5.91,5.91,0,0,0-3,3.49,5.85,5.85,0,0,0,.34,4.62,12.35,12.35,0,0,0,4,4.27l33.65,24.17-13.14,39.21a12.49,12.49,0,0,0-.71,5.86A5.92,5.92,0,0,0,254.39,487Zm9.52-13c-.09-.1-.11-.31-.05-.64l12.31-35.3a7.55,7.55,0,0,0,.49-2.47,3.72,3.72,0,0,0-.59-2,6.66,6.66,0,0,0-1.85-1.81L243.5,410.46c-.32-.19-.45-.36-.39-.49s.28-.19.64-.19l37.35.68a6.08,6.08,0,0,0,3.47-.78,5.13,5.13,0,0,0,1.9-3l10.69-35.79c.1-.36.23-.54.4-.54s.29.18.39.54l10.69,35.79a5.13,5.13,0,0,0,1.9,3,6.1,6.1,0,0,0,3.47.78l37.35-.68c.36,0,.56.06.59.19s-.05.3-.34.49L320.9,431.8a6,6,0,0,0-1.86,1.76,3.72,3.72,0,0,0-.59,2,7.55,7.55,0,0,0,.49,2.47l12.26,35.3a.92.92,0,0,1,.05.64c-.1.09-.31.05-.64-.15l-29.69-22.71a5,5,0,0,0-6.73,0L264.5,473.84C264.17,474,264,474.08,263.91,474Z" transform="translate(-227.51 -354.31)"/></g></svg>